<svg xmlns="http://www.w3.org/2000/svg" width="55" height="60.83" viewBox="0 0 55 60.83"><g transform="translate(-358.5 -277.5)"><path d="M412,356.164H360V333h11.556l5.778,11.369h17.333L400.444,333H412Z" transform="translate(0 -19.333)" fill="#56d7f5"/><path d="M360,279v5.778h11.556v11.556h5.778v5.778l5.778,5.778h5.778l5.778-5.778v-5.778h5.778V284.778H412V279Z" fill="#56d7f5"/><path d="M412,356.164H360V333h11.556l5.778,11.369h17.333L400.444,333H412Z" transform="translate(0 -19.333)" fill="none" stroke="#1a1311" stroke-linecap="round" stroke-linejoin="round" stroke-width="3"/><rect width="28.889" height="11.556" transform="translate(371.556 284.778)" fill="none" stroke="#1a1311" stroke-linecap="round" stroke-linejoin="round" stroke-width="3"/><rect width="52" height="5.778" transform="translate(360 279)" fill="none" stroke="#1a1311" stroke-linecap="round" stroke-linejoin="round" stroke-width="3"/><line y2="5.778" transform="translate(377.333 284.778)" fill="none" stroke="#1a1311" stroke-linecap="round" stroke-linejoin="round" stroke-width="3"/><line y2="5.778" transform="translate(383.111 284.778)" fill="none" stroke="#1a1311" stroke-linecap="round" stroke-linejoin="round" stroke-width="3"/><rect width="5.778" height="11.556" transform="translate(383.111 307.889)" fill="none" stroke="#1a1311" stroke-linecap="round" stroke-linejoin="round" stroke-width="3"/><path d="M392.778,317.556,387,311.778V306" transform="translate(-9.667 -9.667)" fill="none" stroke="#1a1311" stroke-linecap="round" stroke-linejoin="round" stroke-width="3"/><path d="M405,317.556l5.778-5.778V306" transform="translate(-16.111 -9.667)" fill="none" stroke="#1a1311" stroke-linecap="round" stroke-linejoin="round" stroke-width="3"/><line x1="5.778" transform="translate(388.889 302.111)" fill="none" stroke="#1a1311" stroke-linecap="round" stroke-linejoin="round" stroke-width="3"/></g></svg>