<svg xmlns="http://www.w3.org/2000/svg" width="90" height="69.923" viewBox="0 0 90 69.923"><g transform="translate(-142.5 -142.5)"><path d="M203.812,144h-5.437v13.385l-5.438,6.692H154.875l-5.437-6.692V144H144v33.462l5.438,6.692v20.077h5.437v6.692h16.313v-6.692h32.624v6.692h16.313v-6.692h5.437V184.154L231,177.462V144Zm-32.624,53.538v-6.692h32.624v6.692Zm54.374-40.154H209.25v-6.692h16.312Z" fill="#56d7f5"/><g transform="translate(144 144)"><line x1="59.812" transform="translate(0 26.769)" fill="none" stroke="#1a1311" stroke-linecap="round" stroke-linejoin="round" stroke-width="3"/><path d="M231,177.462V144H144v33.462l5.438,6.692h76.125Z" transform="translate(-144 -144)" fill="none" stroke="#1a1311" stroke-linecap="round" stroke-linejoin="round" stroke-width="3"/><line y2="40.154" transform="translate(59.813)" fill="none" stroke="#1a1311" stroke-linecap="round" stroke-linejoin="round" stroke-width="3"/><rect width="16.312" height="6.692" transform="translate(65.25 6.692)" fill="none" stroke="#1a1311" stroke-linecap="round" stroke-linejoin="round" stroke-width="3"/><line x2="16.312" transform="translate(65.25 20.077)" fill="none" stroke="#1a1311" stroke-linecap="round" stroke-linejoin="round" stroke-width="3"/><line x2="16.312" transform="translate(65.25 26.769)" fill="none" stroke="#1a1311" stroke-linecap="round" stroke-linejoin="round" stroke-width="3"/><path d="M151.313,144v13.385l5.438,6.692h38.063l5.438-6.692V144" transform="translate(-145.875 -144)" fill="none" stroke="#1a1311" stroke-linecap="round" stroke-linejoin="round" stroke-width="3"/><path d="M151.313,198v20.077h76.125V198" transform="translate(-145.875 -157.846)" fill="none" stroke="#1a1311" stroke-linecap="round" stroke-linejoin="round" stroke-width="3"/><path d="M158.625,225v6.692h16.313V225" transform="translate(-147.75 -164.769)" fill="none" stroke="#1a1311" stroke-linecap="round" stroke-linejoin="round" stroke-width="3"/><path d="M224.438,225v6.692H240.75V225" transform="translate(-164.625 -164.769)" fill="none" stroke="#1a1311" stroke-linecap="round" stroke-linejoin="round" stroke-width="3"/><line x2="5.438" transform="translate(5.438 46.846)" fill="none" stroke="#1a1311" stroke-linecap="round" stroke-linejoin="round" stroke-width="3"/><line x2="5.438" transform="translate(5.438 53.538)" fill="none" stroke="#1a1311" stroke-linecap="round" stroke-linejoin="round" stroke-width="3"/><line x2="5.438" transform="translate(76.125 46.846)" fill="none" stroke="#1a1311" stroke-linecap="round" stroke-linejoin="round" stroke-width="3"/><line x2="5.438" transform="translate(76.125 53.538)" fill="none" stroke="#1a1311" stroke-linecap="round" stroke-linejoin="round" stroke-width="3"/><rect width="32.625" height="6.692" transform="translate(27.188 46.846)" fill="none" stroke="#1a1311" stroke-linecap="round" stroke-linejoin="round" stroke-width="3"/><line y2="6.692" transform="translate(43.5 46.846)" fill="none" stroke="#1a1311" stroke-linecap="round" stroke-linejoin="round" stroke-width="3"/><line x1="5.437" y2="6.692" transform="translate(21.75 6.692)" fill="none" stroke="#1a1311" stroke-linecap="round" stroke-linejoin="round" stroke-width="3"/><line x1="5.438" y2="6.692" transform="translate(27.188 6.692)" fill="none" stroke="#1a1311" stroke-linecap="round" stroke-linejoin="round" stroke-width="3"/><line x1="5.437" y2="6.692" transform="translate(32.625 6.692)" fill="none" stroke="#1a1311" stroke-linecap="round" stroke-linejoin="round" stroke-width="3"/></g></g></svg>