<svg xmlns="http://www.w3.org/2000/svg" width="83" height="69" viewBox="0 0 83 69"><g transform="translate(-142.5 -277.5)"><path d="M144,279v66.445h79.734V279Zm6.644,59.8a3.322,3.322,0,1,1,3.322-3.322A3.323,3.323,0,0,1,150.644,338.8Zm0-46.511a3.322,3.322,0,1,1,3.322-3.322A3.323,3.323,0,0,1,150.644,292.289Zm59.8,46.511H157.289V285.644h53.156Zm6.71,0a3.322,3.322,0,1,1,3.322-3.322A3.323,3.323,0,0,1,217.155,338.8Zm0-46.511a3.322,3.322,0,1,1,3.322-3.322A3.323,3.323,0,0,1,217.155,292.289Z" fill="#56d7f5"/><path d="M0,0H39.867V26.578H0Z" transform="translate(163.933 298.933)" fill="#56d7f5"/><rect width="53" height="53" transform="translate(157 286)" fill="none" stroke="#1a1311" stroke-linecap="round" stroke-linejoin="round" stroke-width="3"/><rect width="80" height="66" transform="translate(144 279)" fill="none" stroke="#1a1311" stroke-linecap="round" stroke-linejoin="round" stroke-width="3"/><rect width="40" height="27" transform="translate(164 299)" fill="none" stroke="#1a1311" stroke-linecap="round" stroke-linejoin="round" stroke-width="3"/><line y1="7" transform="translate(171 292)" fill="none" stroke="#1a1311" stroke-linecap="round" stroke-linejoin="round" stroke-width="3"/><line y1="7" transform="translate(184 292)" fill="none" stroke="#1a1311" stroke-linecap="round" stroke-linejoin="round" stroke-width="3"/><line y1="7" transform="translate(197 292)" fill="none" stroke="#1a1311" stroke-linecap="round" stroke-linejoin="round" stroke-width="3"/><line y1="6" transform="translate(171 326)" fill="none" stroke="#1a1311" stroke-linecap="round" stroke-linejoin="round" stroke-width="3"/><line y1="6" transform="translate(184 326)" fill="none" stroke="#1a1311" stroke-linecap="round" stroke-linejoin="round" stroke-width="3"/><line y1="6" transform="translate(197 326)" fill="none" stroke="#1a1311" stroke-linecap="round" stroke-linejoin="round" stroke-width="3"/><circle cx="3.322" cy="3.322" r="3.322" transform="translate(147.322 285.644)" fill="none" stroke="#1a1311" stroke-linecap="round" stroke-linejoin="round" stroke-width="3"/><circle cx="3.322" cy="3.322" r="3.322" transform="translate(147.322 332.156)" fill="none" stroke="#1a1311" stroke-linecap="round" stroke-linejoin="round" stroke-width="3"/><circle cx="3.322" cy="3.322" r="3.322" transform="translate(213.833 285.644)" fill="none" stroke="#1a1311" stroke-linecap="round" stroke-linejoin="round" stroke-width="3"/><circle cx="3.322" cy="3.322" r="3.322" transform="translate(213.833 332.156)" fill="none" stroke="#1a1311" stroke-linecap="round" stroke-linejoin="round" stroke-width="3"/></g></svg>