<svg xmlns="http://www.w3.org/2000/svg" width="82.397" height="82.397" viewBox="0 0 82.397 82.397"><g transform="translate(-358.5 -142.5)"><path d="M438.879,171.78l.058,11.161H431l-.058-11.161a11.906,11.906,0,0,0,0,22.452V226.67h7.94V194.232a11.906,11.906,0,0,0,0-22.452Z" transform="translate(-7.422 -3.273)" fill="#56d7f5"/><path d="M438.879,171.78l.058,11.161H431l-.058-11.161a11.906,11.906,0,0,0,0,22.452V226.67h7.94V194.232a11.906,11.906,0,0,0,0-22.452Z" transform="translate(-7.422 -3.273)" fill="none" stroke="#1a1311" stroke-linejoin="round" stroke-width="3"/><path d="M387.644,144A17.645,17.645,0,0,0,370,161.644c0-1.217,7.9-2.205,17.644-2.205s17.644.988,17.644,2.205A17.639,17.639,0,0,0,387.644,144Z" transform="translate(-1.178)" fill="#56d7f5"/><path d="M399.7,196.5l-13.233,6.616L373.233,196.5A13.238,13.238,0,0,0,360,209.733v19.849h52.931V209.733A13.232,13.232,0,0,0,399.7,196.5Z" transform="translate(0 -6.185)" fill="#56d7f5"/><path d="M370,161.644a17.644,17.644,0,0,1,35.288,0" transform="translate(-1.178)" fill="none" stroke="#1a1311" stroke-linejoin="round" stroke-width="3"/><path d="M405.288,163.116c0-3.654-7.9-6.616-17.644-6.616S370,159.462,370,163.116c0-1.218,7.9-2.205,17.644-2.205S405.288,161.9,405.288,163.116Z" transform="translate(-1.178 -1.473)" fill="none" stroke="#1a1311" stroke-linejoin="round" stroke-width="3"/><path d="M405.288,164c0,12.18-7.9,22.055-17.644,22.055S370,176.18,370,164" transform="translate(-1.178 -2.356)" fill="none" stroke="#1a1311" stroke-linejoin="round" stroke-width="3"/><path d="M381.39,187.047a6.622,6.622,0,0,1-6.39,8.339" transform="translate(-1.767 -5.071)" fill="none" stroke="#1a1311" stroke-linejoin="round" stroke-width="3"/><path d="M397.727,187.047a6.622,6.622,0,0,0,6.39,8.339" transform="translate(-4.418 -5.071)" fill="none" stroke="#1a1311" stroke-linejoin="round" stroke-width="3"/><path d="M386.466,229.582V203.116L373.233,196.5A13.233,13.233,0,0,0,360,209.733v19.849h52.931V209.733A13.233,13.233,0,0,0,399.7,196.5l-13.233,6.616" transform="translate(0 -6.185)" fill="none" stroke="#1a1311" stroke-linejoin="round" stroke-width="3"/></g></svg>