<svg xmlns="http://www.w3.org/2000/svg" width="178.55" height="41.552" viewBox="0 0 178.55 41.552">
  <g id="BANTECH" transform="translate(37.471 95.608)" style="isolation: isolate">
    <g id="グループ_55" data-name="グループ 55" style="isolation: isolate">
      <path id="パス_64" data-name="パス 64" d="M-37.471-95.108h10.3c7,0,12.4,1.95,12.4,10.5,0,4.9-2.15,7.6-5.9,8.251,4.75.7,7.1,4.1,7.1,9.85,0,8.1-4.151,11.9-11.8,11.9h-12.1Zm10.3,16.351c4.2,0,5.2-1.95,5.2-5.65s-1.9-5.051-5.751-5.051h-1.55v10.7Zm.25,18.351c4.15,0,5.45-2.05,5.45-6.25,0-4.6-1.45-6.551-5.6-6.551h-2.2v12.8Z" fill="#fff"/>
      <path id="パス_65" data-name="パス 65" d="M-2.92-95.108H6.23l7.8,40.5H6.43l-1.5-8.9h-6.4L-3.02-54.6h-7.751Zm7.051,26.5L1.68-84.907l-2.4,16.3Z" fill="#fff"/>
      <path id="パス_66" data-name="パス 66" d="M18.129-95.108h5.75l9,21.051V-95.108H39.73v40.5H34.18l-9-22.4v22.4H18.129Z" fill="#fff"/>
      <path id="パス_67" data-name="パス 67" d="M49.629-89.008h-6.25v-6.1h20.7v6.1H57.93v34.4h-8.3Z" fill="#fff"/>
      <path id="パス_68" data-name="パス 68" d="M67.729-95.108h17.65v5.7H75.928v10.75h7.3v5.751h-7.3v12.7h9.551v5.6H67.729Z" fill="#fff"/>
      <path id="パス_69" data-name="パス 69" d="M89.078-67.557v-14.5c0-8.349,2.75-13.55,11.85-13.55,8.7,0,11.351,4.7,11.351,11.7v3.4h-8v-3.75c0-2.85-.1-5.451-3.3-5.451-3.3,0-3.551,2.7-3.551,5.7v18.4c0,3.45.65,5.65,3.551,5.65,3.15,0,3.3-2.7,3.3-5.65v-3.951h8v3.351c0,7.051-2.5,12.15-11.351,12.15C91.828-54.056,89.078-59.456,89.078-67.557Z" fill="#fff"/>
      <path id="パス_70" data-name="パス 70" d="M117.428-95.108h8.25v16.6h7.15v-16.6h8.251v40.5h-8.251V-72.557h-7.15V-54.6h-8.25Z" fill="#fff"/>
    </g>
  </g>
</svg>
